<svg version="1.1" id="Layer_1" xmlns="http://www.w3.org/2000/svg" xmlns:xlink="http://www.w3.org/1999/xlink" x="0px" y="0px"
	 width="100%" viewBox="0 0 608 496" enable-background="new 0 0 608 496" xml:space="preserve">
<path fill="#000000" opacity="1.000000" stroke="none" 
	d="
M359.042419,51.021008 
	C347.269745,54.089211 335.129486,55.058430 323.209595,57.288197 
	C320.105774,57.868805 316.979645,58.332088 313.860352,58.827583 
	C311.057587,59.272789 308.350372,59.447060 307.697845,63.297379 
	C307.347015,65.367577 304.835754,65.894630 302.877289,66.350769 
	C295.591339,68.047714 288.262177,67.843781 281.119629,65.885460 
	C277.759430,64.964188 274.573120,64.937881 271.287048,65.440269 
	C262.741211,66.746796 254.197708,68.076988 245.678436,69.543915 
	C243.525894,69.914574 241.060226,69.918587 240.477280,73.158180 
	C240.062317,75.464241 237.491928,75.758255 235.612625,76.007530 
	C230.481384,76.688171 225.136276,77.177673 220.221771,75.702507 
	C215.609344,74.318016 211.370682,75.153038 206.975784,75.734238 
	C203.517029,76.191635 200.074265,76.784866 196.638687,77.397820 
	C193.943558,77.878654 191.733475,78.464920 189.528534,80.957870 
	C186.199783,84.721390 180.705887,83.876198 176.282745,82.970070 
	C169.998138,81.682571 164.082077,82.476974 158.064774,83.762383 
	C158.062225,84.236946 158.059662,84.711502 158.057098,85.186066 
	C227.339203,85.186066 296.621307,85.186066 365.903381,85.186066 
	C365.911377,85.733589 365.919342,86.281120 365.927307,86.828644 
	C361.848389,87.217903 357.776672,87.821495 353.689301,87.958313 
	C338.205261,88.476593 322.716278,88.847427 307.228943,89.266380 
	C280.591064,89.986961 253.950272,90.613869 227.315704,91.440994 
	C189.527039,92.614487 151.739014,93.831116 113.959671,95.265282 
	C104.870956,95.610298 98.693497,89.893288 91.318474,86.620735 
	C91.317894,86.065247 91.317314,85.509758 91.316727,84.954277 
	C154.412338,69.384109 217.507935,53.813938 281.812653,37.945396 
	C276.158325,35.008160 271.221649,35.424141 266.598480,34.533112 
	C261.386597,33.528625 256.019806,33.343273 250.791000,32.407185 
	C245.798141,31.513342 241.854950,34.623222 237.296188,35.355846 
	C228.310959,36.799831 219.330826,36.879845 210.471985,35.083572 
	C205.650162,34.105869 201.335983,34.556709 196.833008,36.229179 
	C191.845383,38.081657 186.687180,39.470627 181.628540,41.138119 
	C179.359116,41.886200 177.469940,42.968147 179.412872,45.796837 
	C182.510986,50.307343 179.222427,51.880104 175.837891,52.823502 
	C168.350906,54.910408 160.541809,55.365532 153.076721,53.631535 
	C145.800858,51.941486 139.703018,54.630432 133.282242,56.653263 
	C131.536819,57.203152 130.254395,58.316338 131.335831,60.403175 
	C133.267761,64.131226 130.562927,65.264427 127.971535,66.058731 
	C121.962769,67.900543 115.801880,67.701538 109.660378,66.763954 
	C106.682045,66.309265 103.710121,65.742592 100.810020,66.964935 
	C98.570282,67.908943 95.972092,68.445160 96.841881,72.124878 
	C97.398926,74.481491 95.083328,75.037941 93.332832,75.524185 
	C88.089584,76.980659 82.762070,76.563034 77.472794,75.910728 
	C73.874512,75.466965 70.655518,74.738548 70.535789,80.253716 
	C70.485558,82.567924 67.449791,82.839584 65.649696,82.838043 
	C59.659199,82.832909 56.871021,86.646828 54.559563,91.270538 
	C37.651131,125.093201 20.744299,158.916672 3.820574,192.731674 
	C3.153805,194.063934 2.321460,195.313339 1.283133,196.800674 
	C1.000000,131.698792 1.000000,66.397568 1.000000,1.052246 
	C203.666672,1.052246 406.333344,1.052246 609.000000,1.052246 
	C609.000000,29.423889 609.000000,57.743286 608.609009,86.397743 
	C606.069092,86.593735 603.920471,86.339394 601.771118,86.334206 
	C587.293091,86.299248 572.814636,86.274841 558.336914,86.354362 
	C555.513855,86.369858 553.178162,85.767250 551.165283,83.648972 
	C546.353210,78.584839 541.491760,73.563026 536.517151,68.659096 
	C530.851135,63.073460 525.040588,57.634384 519.292847,52.131618 
	C519.020081,52.398365 518.747314,52.665115 518.474487,52.931862 
	C548.649658,87.954575 578.824829,122.977280 609.000000,158.000000 
	C609.000000,208.354233 609.000000,258.708466 609.000000,309.531342 
	C607.574219,309.152649 607.263550,307.616058 606.720459,306.242798 
	C585.349304,252.205032 564.027161,198.147842 542.609985,144.128326 
	C529.108032,110.072960 515.432800,76.086288 501.941406,42.026752 
	C500.687042,38.860023 499.156342,36.999897 495.469635,37.170040 
	C493.177734,37.275810 490.689148,37.079609 488.568451,36.278648 
	C476.714996,31.801752 464.968567,34.623672 453.203644,36.492622 
	C436.784912,39.100872 420.368317,41.725826 403.972443,44.472698 
	C400.705627,45.020000 396.299835,44.331291 396.820435,50.228233 
	C396.971832,51.943405 394.550934,52.902195 392.711273,53.365658 
	C381.440735,56.205002 370.329041,55.970139 359.568542,51.116013 
	C368.150452,49.090214 376.602295,47.550812 385.693146,45.895023 
	C379.076935,40.567669 359.616425,42.296677 355.761719,48.225105 
	C356.804077,49.113438 357.923248,50.067226 359.042419,51.021008 
M485.172546,30.524969 
	C488.274902,29.993246 491.389008,29.520956 494.475830,28.910679 
	C496.872772,28.436800 498.490204,29.382170 499.055756,31.600279 
	C500.134277,35.830486 503.044434,36.414738 506.708496,35.918999 
	C509.333679,35.563828 512.008362,35.484520 514.594910,34.957809 
	C517.619080,34.341991 521.932312,34.163845 522.148315,30.527597 
	C522.384949,26.544043 517.864807,26.062021 514.878662,25.032059 
	C504.103973,21.315742 492.957123,21.804941 481.837524,22.631527 
	C479.739868,22.787458 477.656738,23.673180 475.657440,24.454006 
	C473.971039,25.112650 471.989258,25.971645 472.448517,28.274084 
	C472.894257,30.508863 474.877136,31.548304 476.923157,31.551176 
	C479.386322,31.554634 481.850311,30.965595 485.172546,30.524969 
M238.454025,29.709772 
	C240.761200,29.263371 243.196030,31.507805 245.556351,29.547783 
	C244.872818,26.191494 242.165649,25.401651 239.734177,24.544485 
	C227.506180,20.233780 214.976349,20.229502 202.363388,22.308765 
	C199.820038,22.728039 196.511566,22.969296 196.365173,26.413965 
	C196.200378,30.291439 199.850967,30.712284 202.538254,31.848427 
	C204.049927,32.487541 205.572922,32.198597 206.908646,31.599682 
	C216.909470,27.115461 227.175659,27.312456 238.454025,29.709772 
M161.488083,46.108727 
	C162.609497,45.564922 164.204330,45.553135 164.210480,43.012798 
	C156.782150,41.801666 149.358566,41.297623 142.159592,44.262436 
	C139.775406,45.244335 139.923569,47.407654 141.903137,49.039127 
	C143.653854,50.481976 145.694702,51.022709 147.964035,50.319332 
	C152.236786,48.995007 156.517090,47.695148 161.488083,46.108727 
M281.610504,57.978931 
	C279.380341,58.657303 276.569641,58.360390 275.587189,61.346542 
	C279.666046,63.624722 292.315613,62.141304 296.732422,58.851715 
	C291.945648,57.061951 287.211273,57.104023 281.610504,57.978931 
M106.013794,63.861950 
	C110.004372,62.541580 114.222496,61.796265 118.657845,59.007683 
	C113.749657,56.570282 109.469475,57.246368 105.188461,58.098389 
	C103.112167,58.511623 100.334946,58.663559 100.647705,61.533012 
	C100.890907,63.764229 103.177002,64.283043 106.013794,63.861950 
M220.221252,72.311867 
	C223.839081,71.333809 227.823456,71.910461 231.692841,69.846977 
	C225.507278,67.571808 220.150284,68.258362 214.723877,70.947083 
	C216.132950,73.305336 217.897522,72.421417 220.221252,72.311867 
M73.846245,69.757126 
	C73.027664,70.246109 71.698021,70.528641 72.141571,71.802521 
	C72.642433,73.240990 74.161125,73.762398 75.438324,73.440331 
	C78.879768,72.572533 82.246323,71.407707 86.332703,70.148033 
	C81.855858,67.181587 78.171684,68.812592 73.846245,69.757126 
M57.243607,77.043991 
	C55.356583,77.249901 53.248711,76.937286 52.172131,79.133125 
	C56.606407,82.763725 57.197800,82.643677 60.404224,77.388840 
	C59.531799,77.281380 58.731228,77.182770 57.243607,77.043991 
M179.956543,77.394531 
	C176.866791,77.026688 173.862000,77.142700 169.877380,79.238968 
	C174.414139,79.706009 177.597153,79.904350 179.956543,77.394531 
z"/>
<path fill="#000000" opacity="1.000000" stroke="none" 
	d="
M1.000000,305.468658 
	C2.257395,305.554230 3.808411,306.200348 4.523582,304.640411 
	C5.777053,301.906342 7.678246,301.445282 10.498591,301.412231 
	C13.581609,301.376099 14.026365,298.657135 13.497654,296.208405 
	C13.121709,294.467194 12.104827,292.856842 11.323683,291.211975 
	C8.416203,285.089691 9.646047,281.147980 15.154336,279.014618 
	C21.312782,276.629425 29.324884,279.184723 30.217405,284.476318 
	C30.860474,288.288940 29.869688,292.415039 29.353848,296.368164 
	C29.121611,298.147919 27.402111,298.364563 25.851168,298.577728 
	C24.278870,298.793884 22.915411,299.549286 22.567677,301.217621 
	C22.140285,303.268127 23.620813,304.333618 25.179363,304.976349 
	C29.431356,306.729828 32.218815,309.258606 31.376902,314.392944 
	C30.906157,317.263733 34.213161,318.957764 34.059776,321.727631 
	C33.930588,324.060516 31.945221,326.451630 34.499020,328.725159 
	C36.336609,327.876648 36.557877,326.087341 36.552258,324.575104 
	C36.538681,320.920593 37.416409,318.216431 41.229233,316.684235 
	C43.499527,315.771942 43.564548,313.032715 43.142567,310.973236 
	C41.587315,303.382996 45.000763,297.782471 50.327324,293.203827 
	C53.491520,290.483917 57.408249,290.933167 61.203949,292.519135 
	C64.713547,293.985565 65.623512,296.653015 65.457886,300.150208 
	C65.397728,301.420288 66.111397,302.708954 66.199463,304.007629 
	C66.434204,307.469452 67.274811,311.234711 61.793201,311.606018 
	C59.574787,311.756317 58.417133,313.570343 58.344971,315.860474 
	C58.280277,317.913727 59.674679,319.138000 61.320541,319.340179 
	C66.136292,319.931763 66.523499,323.118378 66.413963,326.930634 
	C66.227982,333.404022 65.506386,339.967407 68.977394,345.968872 
	C69.547684,346.954926 69.748192,348.182129 71.111496,348.679657 
	C73.013084,347.211395 72.714142,345.408630 72.042282,343.401855 
	C71.412849,341.521820 70.842056,339.577240 70.611145,337.617950 
	C70.115044,333.408539 71.096390,329.964844 75.955086,328.954010 
	C77.077087,328.720551 78.259956,328.434204 78.738342,327.144348 
	C75.124680,323.921692 73.777267,316.477570 76.014633,312.101715 
	C78.232201,307.764618 83.837776,306.113770 90.645676,307.743347 
	C95.269440,308.850067 96.271492,311.955322 96.812492,319.875000 
	C97.045135,323.280670 96.857132,328.008362 91.471390,328.794373 
	C91.425041,329.721863 92.235603,329.785889 92.777168,329.889313 
	C102.149529,331.679443 103.745644,338.849579 104.287094,346.638306 
	C104.681664,352.314056 105.594231,357.873383 107.466644,363.239655 
	C108.042198,364.889191 108.380806,366.823425 110.441223,367.839569 
	C113.464867,364.769806 113.313606,360.525421 114.541412,356.847748 
	C115.130859,355.082153 115.511307,353.431122 117.260887,352.316101 
	C122.702698,348.847900 122.834793,347.405853 118.590614,342.570007 
	C117.844376,341.719727 117.370461,340.630463 116.422623,340.002228 
	C117.026985,350.676025 113.705231,359.230042 108.053932,359.904755 
	C109.134888,353.924469 108.898521,348.061829 107.949280,342.131348 
	C107.334351,338.289581 107.989212,334.404663 112.419731,332.541595 
	C113.091385,332.259186 113.590797,331.431427 114.035530,330.766083 
	C118.674271,323.826263 128.318436,322.515717 134.612045,328.051514 
	C135.460251,328.797577 136.443512,329.780731 136.648712,330.798370 
	C137.457214,334.808136 138.226944,338.824554 139.059860,342.826599 
	C139.581787,345.334503 139.089661,348.452820 134.754272,348.522827 
	C130.396011,348.593201 129.202118,351.675812 131.766068,355.261444 
	C132.147720,355.795166 132.588501,356.470825 133.147003,356.666321 
	C142.104279,359.801300 141.025101,365.860596 138.059616,372.704529 
	C136.393997,376.548523 137.896835,380.163788 139.907394,384.577637 
	C141.406204,379.948151 142.843033,376.153107 143.842453,372.246155 
	C144.885162,368.169861 147.154022,365.875793 151.407883,365.578827 
	C152.389923,365.510284 153.365875,365.183777 154.318405,364.890778 
	C161.263046,362.754547 161.841110,361.174866 157.912094,355.164001 
	C153.149261,347.877502 155.719360,341.940247 164.257950,340.905212 
	C166.865356,340.589172 169.583282,340.820526 172.212753,341.126404 
	C177.675323,341.761902 181.051605,344.679016 181.452026,350.415344 
	C181.850204,356.119843 184.209625,361.804688 180.378311,367.460663 
	C178.842010,369.728638 180.642853,372.251312 183.065948,373.623596 
	C187.244186,375.989838 190.752289,378.910278 192.100723,383.782715 
	C192.589615,385.549286 193.965317,386.004974 195.585220,385.975647 
	C198.477325,385.923340 201.189926,385.306732 203.776703,383.074341 
	C203.017151,380.730927 202.344498,378.212738 201.391205,375.805725 
	C199.347473,370.645538 199.853012,365.666229 203.775299,361.915497 
	C208.470825,357.425385 214.535370,358.145325 220.296600,359.574066 
	C225.143707,360.776123 226.424194,364.537415 227.636673,369.135925 
	C228.996826,374.294525 229.925293,379.234100 229.196869,384.475983 
	C228.475296,385.404175 227.384262,385.177063 226.449997,385.439697 
	C224.914825,385.871338 222.865433,385.769257 222.515442,387.858246 
	C222.207733,389.694977 223.985733,390.308472 225.150772,391.147522 
	C228.335892,393.441437 231.037186,396.179871 232.160645,399.991028 
	C233.501480,404.539490 235.488419,402.796509 237.249313,400.582306 
	C239.710403,397.487701 239.966125,393.488678 241.084778,389.846436 
	C245.365372,375.908905 260.975769,371.713684 271.598297,381.679565 
	C274.136627,384.060974 276.378143,386.652527 273.238373,390.206329 
	C272.044769,391.557343 272.840881,392.742798 273.726624,393.747162 
	C276.475342,396.863861 274.822083,400.033203 273.852753,403.132202 
	C273.259674,405.028229 271.502502,405.415771 269.754395,405.231995 
	C266.754242,404.916626 264.546173,405.567932 263.719757,408.905762 
	C262.890045,412.257050 263.870911,414.970001 266.622925,416.746399 
	C269.690002,418.726257 272.991974,420.362579 276.271637,421.987091 
	C279.919647,423.794006 281.444458,426.314941 281.482422,430.655273 
	C281.544678,437.776611 282.644531,444.886322 283.237122,452.006744 
	C283.494812,455.103210 284.953461,456.408020 287.835175,454.962097 
	C291.836517,452.954437 295.090485,453.595764 298.855499,456.063202 
	C303.045197,458.808899 308.167419,459.478363 313.223419,459.721161 
	C315.613647,459.835938 318.141998,459.493591 320.972260,461.236755 
	C318.507050,462.534241 316.652863,463.510101 314.377228,464.707794 
	C318.968353,466.172455 323.194275,467.461029 327.377350,468.876282 
	C330.103607,469.798676 332.109192,471.624268 332.184723,474.638916 
	C332.370087,482.035797 334.657532,489.034607 335.995331,496.606262 
	C247.312439,497.000000 158.624878,497.000000 69.615021,496.804810 
	C68.247650,491.698578 64.836357,487.688110 63.975689,482.662750 
	C63.860367,481.989410 62.115170,481.318756 61.040272,481.131378 
	C54.349422,479.965149 47.659966,478.158539 40.834846,480.309998 
	C36.415844,481.702972 32.867168,480.741821 29.651066,477.193298 
	C21.897785,468.638641 12.811548,473.036163 3.942681,474.753357 
	C2.245573,475.081909 1.924456,476.201477 1.000000,477.000000 
	C1.000000,419.979095 1.000000,362.958221 1.000000,305.468658 
z"/>
<path fill="#000000" opacity="1.000000" stroke="none" 
	d="
M369.468658,497.000000 
	C376.188995,494.207977 383.889709,494.022095 391.364594,492.806763 
	C422.530670,487.739471 453.746613,482.978821 484.943634,478.101776 
	C502.684570,475.328369 520.417725,472.503784 538.168701,469.796417 
	C543.546509,468.976196 543.977112,469.615906 544.209106,475.240967 
	C544.361511,478.938049 543.325989,482.802216 545.141724,486.335571 
	C547.457458,486.301025 548.113525,484.539856 549.105530,483.306976 
	C562.786621,466.303253 576.436096,449.274139 590.081726,432.241821 
	C591.018005,431.073181 592.003296,429.908295 592.721741,428.606964 
	C595.562439,423.461487 593.650391,418.828125 588.128113,417.232819 
	C537.291077,402.546906 486.467133,387.815155 435.595276,373.250763 
	C431.394806,372.048218 429.741669,370.141296 429.536835,365.685516 
	C429.070923,355.550659 427.994843,345.442078 427.074341,335.331238 
	C426.862122,333.000244 427.255432,331.287964 429.264496,329.695587 
	C435.125641,325.050079 434.992554,324.431915 428.368591,320.792145 
	C428.979279,312.301880 435.086731,306.813110 442.826508,307.685913 
	C446.977722,308.154022 449.239563,310.367432 449.250671,314.516632 
	C449.262665,318.994781 450.553131,324.088013 444.370178,326.092438 
	C443.670929,326.319122 442.746643,328.262482 442.936066,328.464844 
	C446.939178,332.741089 444.532745,339.503601 449.189941,343.668610 
	C453.373962,347.410492 455.052521,347.635284 458.324219,343.152100 
	C458.716553,342.614410 459.063934,342.043182 459.420319,341.480042 
	C463.087433,335.685364 463.086700,335.684906 468.729065,333.599640 
	C468.728973,333.286560 468.820770,332.735016 468.715820,332.694611 
	C463.105072,330.535400 464.782623,326.877869 466.714264,323.150940 
	C471.246033,314.407318 478.148560,311.303925 485.135925,314.822205 
	C488.396790,316.464111 490.170258,318.927155 490.358459,322.675232 
	C490.541962,326.329620 488.877289,328.653992 485.837677,330.327667 
	C484.419769,331.108398 482.667358,331.521942 481.903778,333.611877 
	C483.341003,336.592804 486.378265,338.157593 488.905334,340.197235 
	C491.421906,342.228363 492.352905,344.514252 490.973297,347.634277 
	C489.737091,350.429993 487.155548,352.711792 487.881378,356.285309 
	C488.543060,359.543060 484.731323,361.318481 484.925385,364.485077 
	C490.370300,364.275757 494.814178,361.122986 496.448242,356.212708 
	C496.919983,354.795227 497.298706,353.331390 497.554596,351.860016 
	C499.057892,343.216187 499.374329,342.212219 507.342499,342.881165 
	C508.706512,342.995697 510.636017,343.162964 511.022308,341.166687 
	C511.383972,339.297668 510.397736,337.850220 508.565674,337.354614 
	C503.815582,336.069641 504.686920,333.067535 506.412781,330.072327 
	C507.722748,327.798798 509.573700,325.844391 511.034943,323.648834 
	C513.337585,320.189087 515.917847,318.192322 520.569336,319.365997 
	C525.552490,320.623352 529.033020,323.106476 530.644714,327.982544 
	C531.055298,329.224701 530.854492,330.693146 531.360352,331.875488 
	C533.799866,337.577637 526.441162,342.626221 530.781738,348.801086 
	C534.613586,354.252350 530.477234,360.393646 530.380188,366.246643 
	C530.369507,366.887878 530.378723,367.529419 530.830750,368.628540 
	C532.270874,359.261505 540.709351,358.772339 546.731934,355.239044 
	C548.827209,354.009796 550.132935,352.152374 550.828247,349.786591 
	C551.526550,347.410583 551.734070,345.514099 548.498718,345.066711 
	C545.681458,344.677094 545.028137,342.760406 545.714600,340.301971 
	C546.748779,336.598694 546.075928,332.296753 548.587952,329.181458 
	C552.038818,324.901733 560.994995,324.363708 566.215210,327.660858 
	C570.944397,330.647888 572.615356,337.003632 570.285034,342.729706 
	C568.453308,347.230774 567.478516,351.869415 566.617004,356.666840 
	C565.870483,360.824036 568.082336,365.373260 565.434570,369.532043 
	C572.177246,364.849152 577.318359,358.424896 584.273438,355.082245 
	C584.052673,351.416901 579.533752,352.135254 579.967468,348.722473 
	C580.558044,344.075623 582.259338,339.778870 584.447083,335.801270 
	C586.734253,331.642883 592.386292,331.125916 598.970398,332.544556 
	C605.542480,333.960571 607.966675,342.383209 604.184998,348.220612 
	C599.695435,355.150818 600.211609,356.062805 608.656494,358.872681 
	C609.000000,404.946716 609.000000,450.893402 609.000000,497.000000 
	C529.312500,497.000000 449.624908,497.000000 369.468658,497.000000 
z"/>
<path fill="#000000" opacity="1.000000" stroke="none" 
	d="
M1.000001,265.437500 
	C10.286686,265.590851 19.581316,266.078857 28.858274,266.795593 
	C44.448635,268.000153 60.028168,269.345245 75.610588,270.651154 
	C76.549538,270.729828 77.643654,270.383545 78.907959,272.196075 
	C52.868893,272.196075 27.394875,272.196075 1.460428,272.098022 
	C1.000000,269.958344 1.000000,267.916656 1.000001,265.437500 
z"/>
<path fill="#000000" opacity="1.000000" stroke="none" 
	d="
M441.597382,210.442917 
	C440.606262,207.395615 441.266663,204.338776 439.460052,201.907654 
	C436.862549,201.936371 436.167450,204.063980 435.191345,205.674866 
	C429.377136,215.270035 426.611755,225.546555 429.225220,236.710281 
	C432.771576,251.858963 429.592072,266.442200 426.002380,281.038361 
	C425.568604,282.802094 425.367889,284.639679 425.226624,286.456085 
	C424.481262,296.040985 424.713257,296.613861 431.275696,302.586090 
	C430.616730,305.348389 428.143433,305.958496 425.987183,306.404022 
	C421.909393,307.246490 421.478363,309.206299 422.099579,313.132172 
	C424.466705,328.091034 425.158417,343.235931 426.452820,358.317413 
	C427.941711,375.664062 428.878662,393.128540 433.613464,410.056244 
	C434.320465,412.583862 434.299194,415.314880 434.618591,417.951324 
	C435.279175,423.403503 436.154144,428.786896 440.150452,433.103027 
	C432.691833,436.290375 424.978546,432.306702 424.472382,425.089752 
	C423.907562,417.036560 422.685394,409.047516 424.382446,400.824951 
	C425.877075,393.583130 423.824402,386.265991 421.680786,379.230804 
	C419.934143,373.498444 417.823944,367.876984 416.069885,362.146637 
	C414.320251,356.430847 412.813080,350.640839 410.785889,343.407135 
	C408.458374,352.785431 406.444458,360.843719 404.466461,368.910858 
	C403.991577,370.847656 403.955261,372.953033 403.173828,374.743774 
	C398.088257,386.398163 401.091492,398.185638 402.348206,409.958832 
	C402.638580,412.678864 404.621460,413.838440 406.585052,415.132050 
	C408.004395,416.067139 410.195923,416.274261 410.243225,418.664276 
	C404.180908,420.248535 400.770752,418.534821 399.205811,413.148468 
	C398.012299,409.040466 396.782654,404.955597 393.597900,401.414398 
	C392.402435,405.895386 395.443329,409.893555 393.831329,414.017242 
	C391.612213,413.423981 391.871490,411.694702 391.764709,410.310150 
	C391.351166,404.947998 390.293823,399.749817 387.787354,394.962036 
	C386.350861,392.218109 386.860168,389.824615 389.390533,388.543579 
	C393.493927,386.466187 394.650970,382.771759 395.722443,378.895752 
	C398.942200,367.248352 399.717804,355.296631 399.866547,343.302948 
	C399.970215,334.947632 400.812164,326.725494 402.535736,318.545715 
	C403.063538,316.040771 405.420532,312.777222 401.161560,310.941772 
	C401.005096,310.874329 400.962555,310.313965 401.019684,310.012238 
	C403.880005,294.905029 396.906555,281.703430 392.925018,267.911560 
	C390.849457,260.721802 388.930847,253.585037 390.495209,245.842880 
	C391.929413,238.744812 394.941437,232.610657 399.491364,227.173584 
	C408.713959,216.152740 405.531433,205.179626 400.344330,193.536438 
	C399.961243,192.676483 399.283295,191.798904 397.684845,191.952347 
	C394.563416,196.194168 395.374878,201.573212 394.361023,206.476334 
	C394.027008,208.091553 393.975769,209.792709 394.003998,211.451004 
	C394.205505,223.290695 390.569611,233.851593 384.257263,243.826187 
	C379.031494,252.083786 379.867065,262.152679 377.402313,271.271454 
	C376.753906,273.670410 376.330261,275.133972 373.544067,273.199829 
	C372.874878,276.451874 375.808594,278.661316 375.215942,282.003418 
	C373.608795,281.438507 371.959991,281.307434 370.922272,283.604370 
	C369.638824,277.092773 369.359772,271.303314 371.370636,265.414307 
	C378.034424,245.898880 382.876343,225.885971 387.103607,205.724152 
	C388.680817,198.201706 388.862701,190.545044 388.751251,182.872681 
	C388.692627,178.835693 389.182404,175.011200 392.552765,171.959595 
	C394.407867,170.279968 394.322021,167.413239 394.895874,165.010529 
	C397.663147,153.424179 399.963226,141.656967 405.931976,131.150986 
	C408.179169,127.195526 411.223938,123.945290 416.434753,123.728745 
	C427.770569,123.257660 433.369141,128.658432 434.143494,142.043793 
	C434.517944,148.516998 436.586731,154.183578 438.862823,160.156052 
	C442.622711,170.022018 445.796173,180.009186 446.660797,190.957855 
	C448.179657,210.191452 453.057678,228.895096 460.545807,246.847580 
	C462.846588,252.363632 467.528839,254.170883 472.176941,256.222168 
	C475.260315,257.582886 477.463745,259.482635 478.869812,262.523041 
	C481.003693,267.137299 479.136597,269.800781 473.646576,269.738403 
	C473.213379,267.455414 476.178009,267.847961 476.393280,266.490021 
	C469.998383,265.222412 464.686615,261.873444 461.172638,256.692566 
	C454.149841,246.338364 448.992859,234.898590 443.706390,223.586349 
	C441.871857,219.660706 441.835266,215.197128 441.597382,210.442917 
z"/>
<path fill="#000000" opacity="1.000000" stroke="none" 
	d="
M237.237320,206.581558 
	C243.512985,201.873367 249.014496,196.997025 249.129883,188.760895 
	C249.212357,182.874313 245.394073,176.745026 250.539780,171.173996 
	C250.972687,170.705292 250.109863,168.992355 249.782364,167.877060 
	C248.468002,163.400986 249.470963,160.431107 254.670807,159.863388 
	C256.285065,159.687164 258.104309,159.357666 258.592804,157.339264 
	C259.119812,155.161697 257.664246,154.386108 255.934433,153.871201 
	C255.779510,153.825089 255.627502,153.733170 255.502213,153.628830 
	C252.975357,151.524200 251.452560,137.969971 253.381195,134.786392 
	C256.733429,129.252930 263.417206,127.283447 269.547455,129.962357 
	C273.392700,131.642715 274.999207,135.196472 276.824707,138.542404 
	C278.737183,142.047775 280.463379,145.654388 282.349976,149.174408 
	C283.992645,152.239288 286.812775,154.022156 289.629913,155.435654 
	C290.621307,157.232513 288.439362,156.817139 288.336395,157.928421 
	C291.270813,161.478378 296.324280,163.057068 298.497528,167.539886 
	C296.971741,168.864182 296.357452,166.525803 295.181213,167.249222 
	C295.806946,172.811340 294.476807,174.007599 284.733917,176.227341 
	C285.285217,181.203674 285.737701,186.252930 286.441071,191.266998 
	C286.847321,194.162933 285.862244,195.933624 283.319183,197.334671 
	C278.506714,199.985977 273.886810,203.010086 268.683929,204.879776 
	C264.993500,206.205963 263.900787,207.933823 265.894348,211.913132 
	C270.127228,220.362305 269.891449,230.021164 272.365662,238.986496 
	C273.193604,241.986511 270.490509,243.056198 268.225281,243.628555 
	C264.058411,244.681351 262.847778,247.089706 263.235565,251.289566 
	C263.916534,258.664062 264.953949,265.716949 269.518707,271.976410 
	C274.000702,278.122375 274.350006,285.654877 275.334686,292.896149 
	C276.384735,300.618378 276.366180,308.497101 279.051056,315.976685 
	C280.075317,318.830139 280.970703,321.600433 283.555511,323.536224 
	C284.417297,324.181641 285.484497,325.496613 285.365540,326.353943 
	C284.618530,331.736969 287.115326,336.314392 289.048645,341.258972 
	C286.401276,341.756561 286.423767,339.328278 285.199219,338.580261 
	C284.449097,344.450134 280.952637,346.872009 274.811829,345.549896 
	C279.882416,338.513397 271.934540,332.370728 273.959717,325.235718 
	C271.610779,325.844360 269.828278,325.183624 267.984833,324.647919 
	C256.955078,321.442535 245.904770,318.307678 234.860367,315.152588 
	C229.386108,313.588715 228.689545,312.484070 230.326981,306.881622 
	C231.437714,303.081268 232.879868,299.377777 234.133209,295.748535 
	C230.448685,300.344299 228.003311,308.765839 228.861664,314.328491 
	C229.042023,315.497375 229.476227,316.780731 228.715546,317.719116 
	C225.979980,321.093597 225.705490,325.294708 224.760452,329.798401 
	C222.418777,327.908081 224.165955,325.707184 223.429474,324.069855 
	C220.992401,329.872070 218.034103,330.664459 212.626190,326.596436 
	C218.190781,323.882050 217.390259,317.973083 219.319855,313.434418 
	C220.598083,310.427734 217.245514,310.103302 215.379898,309.550995 
	C200.382446,305.110718 185.345154,300.805176 170.323822,296.445404 
	C160.097107,293.477203 149.875168,290.492523 139.654984,287.501862 
	C138.600876,287.193390 137.258011,287.319366 136.847473,285.751740 
	C137.623962,284.172485 139.117233,284.860046 140.298706,284.852936 
	C151.797928,284.783813 163.297516,284.754211 174.796967,284.762390 
	C177.400894,284.764252 179.724304,284.598785 181.047302,281.762848 
	C181.925262,279.880859 183.964661,279.908844 185.792953,279.558655 
	C188.115631,279.113770 190.798615,279.248138 192.857849,276.314697 
	C185.275253,273.139160 191.165787,268.630768 191.562500,264.621216 
	C191.767807,262.546234 194.294922,262.371613 196.106003,262.373932 
	C199.732147,262.378571 203.097778,263.188049 205.056549,266.708191 
	C206.096222,268.576569 206.461243,270.513763 204.876526,272.275696 
	C203.233856,274.102051 200.718643,275.132568 199.978043,277.784760 
	C199.242172,280.420044 203.606110,281.152588 201.136749,284.862305 
	C205.741562,283.081787 209.270752,282.234985 211.166122,278.694092 
	C208.552750,274.603058 209.057983,271.131104 212.669571,267.899750 
	C215.338989,265.511383 220.852707,265.525635 223.784576,268.091187 
	C226.871994,270.792877 225.868011,273.480164 223.177933,275.647552 
	C220.754425,277.600189 219.233444,279.253265 220.999512,282.696106 
	C223.008743,286.612915 218.602280,289.194916 217.884216,292.409424 
	C218.671555,293.510590 219.469025,293.465851 220.294830,293.182709 
	C221.448532,292.787109 229.257141,284.999664 229.556534,283.827393 
	C230.915298,278.507050 232.900467,273.230652 233.357132,267.828308 
	C233.823654,262.309174 234.884583,257.042145 236.383133,251.779114 
	C237.363907,248.334518 236.974564,245.622879 232.746185,244.559006 
	C230.878250,244.089035 229.161163,242.834305 227.512939,241.730728 
	C226.001770,240.718918 225.319992,239.303925 226.294861,237.427795 
	C231.316040,227.764450 233.900070,217.238464 237.237320,206.581558 
M244.977188,271.677094 
	C247.380051,272.913696 247.645294,274.976196 247.849274,277.490204 
	C248.244415,282.360352 248.132248,286.925690 245.525360,291.311829 
	C244.655350,292.775635 244.574493,295.073669 246.611664,296.167236 
	C248.757492,297.319122 250.042191,295.612549 251.107071,294.160339 
	C252.963821,291.628265 254.838043,289.162537 258.002899,287.976898 
	C256.048767,285.206268 255.703827,282.149109 257.938202,280.463318 
	C261.198181,278.003754 260.282349,275.434479 258.878632,273.114868 
	C255.209869,267.052307 253.551132,260.313202 251.498276,253.679138 
	C251.094788,252.375198 250.874420,250.705200 248.880203,250.170593 
	C248.425323,250.805511 247.862808,251.407303 247.508591,252.113586 
	C244.099701,258.910431 240.510590,265.436523 241.881424,273.757477 
	C242.668518,278.535187 237.192413,283.828552 242.622818,288.213318 
	C242.190582,285.831207 243.945984,283.269073 242.209869,280.085785 
	C241.198563,278.231445 241.550369,273.958344 244.977188,271.677094 
M273.022217,184.528183 
	C269.710846,190.471680 264.620209,195.363663 262.053680,202.352478 
	C266.516937,200.960724 269.930847,198.916931 273.238831,196.677017 
	C280.973572,191.439621 281.596161,187.633621 275.936005,179.608673 
	C275.052002,181.083710 274.203522,182.499466 273.022217,184.528183 
z"/>
<path fill="#000000" opacity="1.000000" stroke="none" 
	d="
M390.909149,330.290680 
	C390.943542,331.257599 390.943542,331.906342 390.943542,332.800446 
	C393.861877,332.614563 395.346222,329.155243 398.949829,329.592133 
	C398.949829,336.907288 399.491241,344.331604 398.821686,351.645111 
	C397.842407,362.341125 397.509888,362.177887 386.899323,359.086060 
	C355.923523,350.059998 324.916901,341.139587 293.916107,332.199432 
	C290.251984,331.142731 287.626038,330.108856 286.054382,325.464783 
	C284.518372,320.926117 280.076233,317.330597 279.251312,311.989136 
	C278.944794,310.004456 278.484528,308.067780 278.834747,306.062164 
	C279.594177,301.713135 280.624390,297.675140 286.593048,298.850616 
	C287.519501,299.033051 288.617462,298.861450 289.515137,297.360291 
	C286.528381,294.442688 286.278595,291.480743 288.862610,287.423584 
	C290.532684,284.801392 292.231567,283.332001 294.825623,283.097198 
	C297.923584,282.816803 300.724030,284.069092 302.535065,286.828735 
	C303.553101,288.380096 304.412598,290.176544 304.200104,291.984070 
	C303.046417,301.796875 306.641510,312.035828 301.573029,321.503693 
	C301.227905,322.148346 301.276581,323.003784 301.092224,324.042358 
	C302.879181,323.178436 303.339386,321.707397 303.384521,320.544250 
	C303.627594,314.283722 309.520782,310.785217 310.770477,305.022705 
	C311.081970,303.586212 312.602753,303.297577 314.082306,303.502991 
	C316.301971,303.811157 318.356567,303.425354 320.054718,301.819122 
	C317.351410,297.723877 317.493652,291.357361 320.685150,288.133484 
	C323.075531,285.718811 326.362274,286.317810 329.190918,287.099884 
	C332.400085,287.987122 333.885101,290.781677 334.131409,293.954620 
	C334.269348,295.731567 333.897980,297.613190 333.427185,299.358948 
	C332.407532,303.139618 330.927002,306.471130 334.437469,310.284149 
	C336.822601,312.874847 333.493591,315.779938 331.954346,318.200836 
	C329.915405,321.407684 327.592987,324.428741 328.828094,329.701233 
	C335.379059,322.786621 339.416687,313.408539 349.850342,314.511841 
	C350.521881,312.388397 350.026489,311.365967 349.069824,311.048828 
	C343.521332,309.209595 345.460785,305.375610 346.658234,301.893677 
	C347.025757,300.824921 347.636810,299.858215 347.758362,298.661713 
	C348.119476,295.107819 350.444397,293.373413 353.713715,292.989807 
	C357.222321,292.578064 360.928284,292.433258 363.306366,295.704559 
	C365.461517,298.669067 364.026825,302.010223 362.028534,303.938965 
	C356.774811,309.009888 358.349365,313.313477 362.008820,318.325317 
	C365.177429,322.664825 364.384308,328.429779 360.649200,333.127350 
	C359.147644,335.015778 357.498627,336.761322 356.376038,339.691742 
	C360.395203,339.124176 361.371948,336.473846 362.088379,334.118347 
	C363.161346,330.590607 365.355682,328.914215 368.838440,328.437836 
	C370.314453,328.235992 371.776794,327.851807 373.209198,327.428162 
	C378.681305,325.809753 380.558136,323.275085 381.085754,316.917297 
	C374.574402,313.226685 374.574707,313.226837 378.063477,305.754700 
	C378.203125,305.455658 378.498199,305.106018 378.433899,304.852875 
	C376.645477,297.811737 381.995575,298.004120 386.034058,297.968475 
	C392.588043,297.910614 397.522705,302.158020 397.920319,307.215973 
	C398.064026,309.044342 397.466400,310.648773 396.037140,311.599304 
	C389.003998,316.276489 388.154633,322.601837 390.909149,330.290680 
z"/>
<path fill="#000000" opacity="1.000000" stroke="none" 
	d="
M122.037086,276.038574 
	C120.449883,277.401886 120.208473,281.276611 117.108261,279.696686 
	C114.130806,278.179352 114.195801,275.065277 115.565453,272.237427 
	C118.278038,266.636871 119.155655,260.986298 117.075066,254.913834 
	C116.460190,253.119232 116.207741,250.648849 116.960205,249.033676 
	C120.077690,242.341965 117.586334,235.976105 116.385742,229.536575 
	C115.656189,225.623535 114.311401,221.809525 113.791100,217.878464 
	C113.417107,215.052872 111.791779,213.453384 109.783424,212.156311 
	C113.853928,200.795258 114.959785,182.379959 111.513634,175.624878 
	C111.053123,190.290222 101.713364,202.320084 100.611877,216.885406 
	C96.990082,214.480164 97.406197,211.727356 98.516022,208.854858 
	C102.183022,199.363754 104.928970,189.635071 106.254166,179.521576 
	C106.885315,174.704819 107.302406,169.771988 106.261765,165.112152 
	C105.188583,160.306625 106.431557,155.908234 109.270325,153.053360 
	C113.179024,149.122482 114.517258,144.330521 116.561081,139.678131 
	C117.294945,138.007660 117.951721,136.259567 118.963135,134.762741 
	C122.381287,129.704056 129.183762,129.218216 132.254486,134.416748 
	C135.747696,140.330505 140.876358,144.880264 144.401794,150.698792 
	C146.334015,153.887772 149.375229,156.355927 148.558121,160.887466 
	C148.287155,162.390228 150.236145,164.293289 151.206757,166.080688 
	C148.036240,170.387741 143.258957,169.028519 138.572952,169.278473 
	C138.068756,178.024338 139.994949,186.240189 141.346024,194.541840 
	C142.610916,202.313919 148.362167,209.487000 145.129532,219.269211 
	C141.079956,213.626099 142.596542,207.914307 140.469482,203.124512 
	C141.420395,211.738052 138.146591,219.463287 135.624542,227.305923 
	C132.997528,235.475037 131.532166,243.761566 132.173462,252.350571 
	C132.413651,255.567307 131.878677,258.622314 130.867538,261.667938 
	C127.619606,271.450958 124.279045,281.212250 124.259613,291.723450 
	C124.254715,294.370178 122.913834,296.576965 119.985909,295.914337 
	C117.105469,295.262451 118.386162,292.790649 118.784515,290.928192 
	C119.792351,286.216095 120.838013,281.512054 122.096489,276.044861 
	C123.268967,266.689026 124.213478,258.093170 125.157997,249.497330 
	C122.221581,258.164703 121.941895,267.083679 122.037086,276.038574 
M133.479523,189.236526 
	C134.175369,189.553009 135.432297,190.200592 135.218613,188.883224 
	C134.329269,183.400757 134.863876,177.711502 133.029770,172.157074 
	C128.023529,179.207855 128.058105,184.767960 133.479523,189.236526 
M125.814011,232.340179 
	C126.326538,227.928146 127.076241,223.530502 126.635315,217.610367 
	C124.743286,223.415573 125.545090,228.006332 125.814011,232.340179 
z"/>
<path fill="#000000" opacity="1.000000" stroke="none" 
	d="
M409.734100,357.092621 
	C410.040283,355.616211 410.161835,354.423706 411.720520,353.796387 
	C414.092896,357.567932 414.791687,361.884186 416.065979,366.108398 
	C408.721283,366.894348 407.728851,365.440857 409.734100,357.092621 
z"/>
<path fill="#000000" opacity="1.000000" stroke="none" 
	d="
M37.585056,483.456573 
	C39.934750,484.327423 42.184082,484.423492 43.912102,485.852661 
	C41.671764,489.486847 36.965542,491.243744 33.432930,489.666351 
	C30.758106,488.471985 30.579039,486.579803 32.562767,484.582458 
	C33.804745,483.331970 35.474499,483.068207 37.585056,483.456573 
z"/>
</svg>