<?xml version="1.0" encoding="UTF-8" standalone="no"?>
<!-- Created with Inkscape (http://www.inkscape.org/) -->

<svg
   version="1.1"
   id="svg2"
   xml:space="preserve"
   width="6400"
   height="4000"
   viewBox="0 0 6400 4000"
   sodipodi:docname="vecteezy_fashion-stylish-templates-abstract-shapes-and-line-in-pink_8974742.eps"
   xmlns:inkscape="http://www.inkscape.org/namespaces/inkscape"
   xmlns:sodipodi="http://sodipodi.sourceforge.net/DTD/sodipodi-0.dtd"
   xmlns="http://www.w3.org/2000/svg"
   xmlns:svg="http://www.w3.org/2000/svg"><defs
     id="defs6" /><sodipodi:namedview
     id="namedview4"
     pagecolor="#ffffff"
     bordercolor="#666666"
     borderopacity="1.0"
     inkscape:pageshadow="2"
     inkscape:pageopacity="0.0"
     inkscape:pagecheckerboard="0" /><g
     id="g8"
     inkscape:groupmode="layer"
     inkscape:label="ink_ext_XXXXXX"
     transform="matrix(1.3333333,0,0,-1.3333333,0,4000)"><g
       id="g10"
       transform="scale(0.1)"><path
         d="M 0,0 H 48000 V 30000 H 0 Z"
         style="fill:#f6e3e3;fill-opacity:1;fill-rule:nonzero;stroke:none"
         id="path12" /><path
         d="m 38255.4,17295.3 c 0,0 -9636.6,-3821.1 -11321.4,-8652.9 -1684.7,-4831.9 478.7,-3128.5 3671.2,-7676.4 3192.6,-4547.9 6488,-6672.6 9167.1,-7080.8 3235.9,-493.1 7781.7,1342.2 7512,2082.2 v 0 c 2299.7,1728.3 3769.1,4207.901 4103,6923.8 l 338.9,2756.9 1075,8273.9 c 0,0 -3899,5599.4 -2354.9,6980.5 1544.1,1381.2 -12190.9,-3607.2 -12190.9,-3607.2"
         style="fill:#e4d9db;fill-opacity:1;fill-rule:nonzero;stroke:none"
         id="path14" /><path
         d="m 9162.68,45686.6 c 2580.82,-2787.6 5289.92,-5420.1 8112.42,-7883.1 1258.1,-1097.8 2565.5,-2193.7 3439.7,-3701.5 979.8,-1690 1328.1,-3749.4 1542,-5761.8 308.3,-2900 372.9,-5904.5 -431.7,-8677.5 -986.9,-3401.6 -3290.3,-6249.5 -6137.2,-7754.5 -2846.9,-1505 -6193.07,-1677.4 -9182.1,-589.9 -3397.25,1236.1 -6266.995,4021.2 -8265.79,7394 -1998.8,3372.8 -3176.96,7309.1 -3862.13,11306.2 -297.59,1736 -505.47,3534.2 -191.34,5266.4 149.17,822.5 413.82,1613.6 736.68,2368.4 1249.62,2921 3410.78,5319.7 6002.682,6662.4 2197.618,1138.5 4634.438,1517.7 7040.268,1730.7 808.42,71.6 1897.09,-121.3 1988.97,-1041.7 l -792.46,681.9"
         style="fill:#eacade;fill-opacity:1;fill-rule:nonzero;stroke:none"
         id="path16" /><path
         d="M 31312.3,0 H 0 v 16180.2 c 1791.75,-2204 4005.97,-3952.3 6505.8,-4861.9 1274.5,-463.7 2613.43,-698.4 3951.4,-698.3 1573.5,0.1 3145.4,324.7 4606.9,983.2 471.1,-581.7 926.8,-1175.9 1402.9,-1750.7 1278.9,-1544 2840.1,-3035.4 4922.9,-3568.6 1378.7,-352.9 2864.6,-252.3 4284.1,-462.5 239.4,-35.5 476.6,-80 711.3,-133.3 274.5,-1419.8 1998,-1556.8 4219.9,-4722.1 235.2,-335 471.1,-657 707.1,-966"
         style="fill:#e8a9b4;fill-opacity:1;fill-rule:nonzero;stroke:none"
         id="path18" /><path
         d="m 33145.9,0 h -1833.6 c -236,309 -471.9,631 -707.1,966 C 28383.3,4131.3 26659.8,4268.3 26385.3,5688.1 27791.9,5368.6 29098.7,4734.1 30148,3854 31410.8,2794.9 32300.4,1407.1 33145.9,0"
         style="fill:#d7a2ad;fill-opacity:1;fill-rule:nonzero;stroke:none"
         id="path20" /><path
         d="m 10457.2,10620 c -1337.97,-0.1 -2676.9,234.6 -3951.4,698.3 C 4005.97,12227.9 1791.75,13976.2 0,16180.2 v 0 1130.6 c 177.453,3.5 354.824,5.2 532.203,5.2 2701.617,0 5389.647,-402.4 7915.067,-1193.4 1406.9,-440.6 2777.33,-1007.6 3932.43,-1837.4 1052.1,-755.8 1890,-1701.1 2684.4,-2682 -1461.5,-658.5 -3033.4,-983.1 -4606.9,-983.2"
         style="fill:#dc97b0;fill-opacity:1;fill-rule:nonzero;stroke:none"
         id="path22" /><path
         d="m 38333.7,17323.7 c -10.7,17 -21.4,33.9 -32.1,50.9 -1045,1661.1 -1931.9,3513.5 -3357.2,4760.6 -3406.1,2980.3 -8623.8,1508.7 -12041.6,4471.4 -185.6,160.8 -362.6,332.4 -532.7,512.5 -31.9,408.5 -70.2,815.8 -113.3,1221.1 -58.7,552.6 -127.6,1108.7 -216.9,1659.8 H 48000 v -9410.6 c -3369.2,-994.9 -8942.2,-3003.7 -9666.3,-3265.7"
         style="fill:#e8a9b4;fill-opacity:1;fill-rule:nonzero;stroke:none"
         id="path24" /><path
         d="m 43060.9,13788.2 c -184.7,0 -369.7,13.1 -555,41.9 -1744.6,270.9 -3130.7,1850.7 -4172.2,3493.6 724.1,262 6297.1,2270.8 9666.3,3265.7 v -3570.9 c -133.6,-549.7 -344.2,-1054.9 -695.5,-1482 -491.4,-597.4 -1184.9,-924.1 -1869.6,-1194.2 -762.9,-301 -1564.2,-554.1 -2374,-554.1"
         style="fill:#d7a2ad;fill-opacity:1;fill-rule:nonzero;stroke:none"
         id="path26" /><path
         d="m 22370.1,27119.1 c -678.7,718.3 -1247.4,1571.5 -1807.9,2415.1 -102,153.6 -204.7,308.5 -304.2,465.8 h 1781.9 v 0 c 89.3,-551.1 158.2,-1107.2 216.9,-1659.8 43.1,-405.3 81.4,-812.6 113.3,-1221.1"
         style="fill:#dc97b0;fill-opacity:1;fill-rule:nonzero;stroke:none"
         id="path28" /></g></g></svg>
